<?xml version="1.0" encoding="UTF-8" standalone="no"?>
<svg width="323.5" height="107.3894" viewBox="0 0 323.5 107.3894" fill="none" version="1.1" id="svg22" xmlns="http://www.w3.org/2000/svg">
  <g id="g25" transform="translate(-1.905025,-0.9094633)">
    <path d="m 32.905025,22.309963 -31,13.651 v -8.917 l 21.2244,-8.521 -0.2862,0.462 v -1.1 l 0.2862,0.462 -21.2244,-8.5206 V 0.9094633 l 31,13.6504997 z" fill="#475569" id="path2" />
    <g id="g24" transform="translate(-2,-6)">
      <path d="M 46.930025,40.798863 V 8.0715633 h 6.9194 V 35.093863 h 14.0306 v 5.705 z" fill="#475569" id="path7" />
      <path d="M 100.07102,40.798863 H 92.657023 L 103.95502,8.0715633 h 8.916 l 11.282,32.7272997 h -7.414 l -8.198,-25.2486 h -0.256 z m -0.463002,-12.864 h 17.514002 v 5.401 H 99.608018 Z" fill="#475569" id="path8" />
      <path d="M 143.96602,13.776463 V 8.0715633 h 26.878 v 5.7048997 h -10.019 v 27.0224 h -6.84 v -27.0224 z" fill="#475569" id="path9" />
      <path d="M 196.34702,40.798863 V 8.0715633 h 22.052 v 5.7048997 h -15.133 v 7.7984 h 13.999 v 5.705 h -13.999 v 7.814 h 15.197 v 5.705 z" fill="#475569" id="path10" />
      <path d="M 273.09202,8.0715633 V 40.798863 h -5.977 l -14.238,-20.598 h -0.24 v 20.598 h -6.919 V 8.0715633 h 6.072 l 14.127,20.5822997 h 0.288 V 8.0715633 Z" fill="#475569" id="path11" />
      <path d="M 293.96602,13.776463 V 8.0715633 h 26.878 v 5.7048997 h -10.019 v 27.0224 h -6.84 v -27.0224 z" fill="#475569" id="path12" />
    </g>
    <path d="m 75.405025,58.298863 h -40 v 49.999997 h 40 z" fill="#e2e8f0" id="path3" />
    <path d="m 62.867725,80.598361 v 5.401 h -14.9254 v -5.401 z" fill="#475569" id="path4" />
    <path d="m 126.40502,58.298863 h -40 v 49.999997 h 40 z" fill="#e2e8f0" id="path5" />
    <path d="m 113.86802,80.598361 v 5.401 h -14.926 v -5.401 z" fill="#475569" id="path6" />
    <path d="m 175.40502,58.298863 h -40 v 49.999997 h 40 z" fill="#ec5c4c" id="path15" />
    <path d="M 144.93002,99.66236 V 66.935363 h 6.92 v 27.022 h 14.03 v 5.704997 z" fill="#ffffff" id="path16" />
    <path d="m 225.40502,58.298863 h -40 v 49.999997 h 40 z" fill="#336699" id="path17" />
    <path d="M 194.34652,99.66236 V 66.935363 h 22.053 v 5.705 h -15.133 v 7.798 h 13.998 v 5.705 h -13.998 v 7.814 h 15.197 v 5.704997 z" fill="#ffffff" id="path18" />
    <path d="m 277.40502,58.298863 h -40 v 49.999997 h 40 z" fill="#336699" id="path19" />
    <path d="M 271.09202,66.935363 V 99.66236 h -5.976 l -14.238,-20.597997 h -0.24 V 99.66236 h -6.92 V 66.935363 h 6.073 l 14.126,20.582 h 0.288 v -20.582 z" fill="#ffffff" id="path20" />
    <path d="m 325.40502,58.298863 h -40 v 49.999997 h 40 z" fill="#ec5c42" id="path21" />
    <path d="m 311.26902,76.339863 c -0.127,-1.289 -0.676,-2.29 -1.646,-3.004 -0.969,-0.714 -2.285,-1.071 -3.947,-1.071 -1.129,0 -2.082,0.16 -2.86,0.479 -0.778,0.309 -1.374,0.741 -1.79,1.295 -0.405,0.554 -0.607,1.182 -0.607,1.886 -0.021,0.585 0.101,1.097 0.367,1.534 0.277,0.436 0.656,0.815 1.135,1.134 0.479,0.309 1.033,0.581 1.662,0.815 0.628,0.224 1.3,0.416 2.013,0.575 l 2.941,0.704 c 1.427,0.319 2.738,0.745 3.931,1.278 1.193,0.533 2.226,1.188 3.1,1.966 0.874,0.777 1.55,1.693 2.029,2.748 0.491,1.055 0.741,2.264 0.752,3.628 -0.011,2.002 -0.522,3.738997 -1.535,5.208997 -1.001,1.46 -2.45,2.594 -4.346,3.404 -1.886,0.799 -4.16,1.198 -6.824,1.198 -2.642,0 -4.943,-0.404 -6.903,-1.214 -1.95,-0.81 -3.473,-2.008 -4.57,-3.596 -1.087,-1.597997 -1.657,-3.573997 -1.71,-5.927997 h 6.695 c 0.075,1.097 0.389,2.013 0.943,2.748 0.565,0.725 1.316,1.273 2.253,1.646 0.949,0.362997 2.019,0.543997 3.212,0.543997 1.172,0 2.19,-0.171 3.053,-0.511997 0.873,-0.341 1.55,-0.815 2.029,-1.422 0.48,-0.607 0.719,-1.305 0.719,-2.093 0,-0.735 -0.218,-1.353 -0.655,-1.854 -0.426,-0.501 -1.055,-0.927 -1.886,-1.278 -0.82,-0.352 -1.827,-0.672 -3.02,-0.959 l -3.563,-0.895 c -2.76,-0.671 -4.938,-1.721 -6.536,-3.148 -1.598,-1.428 -2.392,-3.351 -2.381,-5.769 -0.011,-1.982 0.516,-3.713 1.582,-5.194 1.076,-1.48 2.551,-2.636 4.426,-3.467 1.875,-0.831 4.006,-1.247 6.392,-1.247 2.429,0 4.549,0.416 6.36,1.247 1.822,0.831 3.239,1.987 4.251,3.467 1.012,1.481 1.534,3.196 1.566,5.146 z" fill="#ffffff" id="path22" />
    <path d="M 257.40502,37.980209 V 55.544805" id="path23-2" style="fill:#6392c6;fill-opacity:1;stroke:#6392c1;stroke-width:2;stroke-linecap:square;stroke-dasharray:3.5;stroke-dashoffset:0;stroke-opacity:1" />
    <path d="M 205.40502,37.980209 V 55.544805" id="path23-2-5" style="fill:#6392c6;fill-opacity:1;stroke:#6392c1;stroke-width:2;stroke-linecap:square;stroke-dasharray:3.5;stroke-dashoffset:0;stroke-opacity:1" />
  </g>
</svg>
